<svg xmlns="http://www.w3.org/2000/svg" width="382" height="130" viewBox="0 0 382 130"><path d="M128.8 110.8h-12.6L84.3 83V61.1a3.5 3.5 0 0 0-3.7-3.7H69.1v-23a5.6 5.6 0 0 0-1.5-4.1L63.5 24a29.5 29.5 0 0 0-48.9 0l-4.5 6.3a8 8 0 0 0-1.4 4.1v77.1a7.4 7.4 0 1 0 14.8 0V88.2h30.8v23.3a7.4 7.4 0 1 0 14.8 0V88.2h10l33 28.9a3.3 3.3 0 0 0 2.6.7h14.1a3.5 3.5 0 0 0 3.7-3.7 3.4 3.4 0 0 0-3.7-3.3zm-87.1-46v16h-5.6v-16zm-17.8-7.4V38.1h30.7v19.3zm15.2-31.5a15.4 15.4 0 0 1 11.1 4.8H28.3a13.9 13.9 0 0 1 10.8-4.8zM23.9 64.8h5.2v16h-5.2zm25.2 16v-16h5.2v16zm20-16h7.8v16h-7.8zm73.2-39.5a12 12 0 0 1 1.2 5.5 11.9 11.9 0 0 1-1.2 5.4 11 11 0 0 1-3.1 3.9 12.9 12.9 0 0 1-8 3h-5.8v5.2a7.1 7.1 0 0 1-.1 1.6 2.8 2.8 0 0 1-.4 1.2c-.4.9-1.6 1.3-3.6 1.3s-3.5-.6-3.8-1.7a7.8 7.8 0 0 1-.3-2.4V22.5a7.1 7.1 0 0 1 .1-1.6 2.8 2.8 0 0 1 .4-1.2c.4-.9 1.6-1.3 3.6-1.3h10a12.8 12.8 0 0 1 7.9 3 9.5 9.5 0 0 1 3.1 3.9zm-8.3 8.5a3.5 3.5 0 0 0 1.3-3 3.6 3.6 0 0 0-1.3-3.1 4.5 4.5 0 0 0-2.8-1.1h-5.8v8.2h5.9a4.3 4.3 0 0 0 2.7-1zm12.5-13.2a6.2 6.2 0 0 1 .1-1.6 3.8 3.8 0 0 1 .4-1.3q.6-1.2 3.6-1.2c1.9 0 3.1.4 3.5 1.2a4.3 4.3 0 0 1 .5 1.3v23.1a4.5 4.5 0 0 0 .3 2.1c.2.3.6.4 1.2.4h1.3l.8.4q.9.6.9 3.3t-.9 3.6c-.8.5-2.7.6-5.7.2s-4-1.1-4.7-2.3a16.4 16.4 0 0 1-1.3-7.3zm31.1 10c.1-1.8 1.4-2.6 3.6-2.6a9.1 9.1 0 0 1 2.7.3 1.6 1.6 0 0 1 1.2.9 4.3 4.3 0 0 1 .5 1.3v19.4a5.6 5.6 0 0 1-.4 1.2c-.5.8-1.5 1.2-3.2 1.2a6.6 6.6 0 0 1-3.4-.6 2.4 2.4 0 0 1-1-1.8c-1.1 1.6-3.1 2.4-5.7 2.4a10.3 10.3 0 0 1-7.5-3.6 12.1 12.1 0 0 1-3.4-8.5 11.8 11.8 0 0 1 3.4-8.5c2.4-2.5 4.9-3.7 7.6-3.7a6.8 6.8 0 0 1 2.9.6 6.7 6.7 0 0 1 1.8 1 8.1 8.1 0 0 1 .9 1zm-8.5 9.6a3.9 3.9 0 0 0 1.2 2.8 4 4 0 0 0 2.9 1.2 3.8 3.8 0 0 0 2.9-1.2 4.1 4.1 0 0 0 0-5.6 3.5 3.5 0 0 0-2.9-1.3 3.8 3.8 0 0 0-3 1.3 4.5 4.5 0 0 0-1.1 2.8zm42-11.9c1.9.8 2.8 1.7 2.8 2.9a3.2 3.2 0 0 1-.4 1.6l-.4.7L201 60.7a11.4 11.4 0 0 0-.6 1.4 3.8 3.8 0 0 1-.9.9 2.5 2.5 0 0 1-1.3.4 8.8 8.8 0 0 1-2.5-.7c-1.8-.8-2.7-1.8-2.7-2.9s1.4-4.3 4.4-10.6l-9.2-15.6a5 5 0 0 1-.9-2.2c0-1 .8-2 2.5-3a5.1 5.1 0 0 1 2.4-.9 3.3 3.3 0 0 1 1.5.3 6 6 0 0 1 .8.8c.1.3 1 1.7 2.5 4.3s3 5.1 4.4 7.3c.2-.5 1-2.4 2.5-5.7l2.4-5.3c.2-.2.3-.5.6-.8a2 2 0 0 1 1.7-.8 5.3 5.3 0 0 1 2.5.7zm20.8 21.1c-1.1 1.5-3 2.3-5.6 2.3s-5-1.2-7.2-3.6a11.7 11.7 0 0 1-3.4-8.2 12.1 12.1 0 0 1 3.4-8.4 10.5 10.5 0 0 1 7.4-3.5 6.5 6.5 0 0 1 2.9.6 4.7 4.7 0 0 1 1.8 1l.8.9a2.9 2.9 0 0 1 .9-1.9 3.8 3.8 0 0 1 2.6-.7 8.7 8.7 0 0 1 2.7.3 1.9 1.9 0 0 1 1.2.9l.4 1.2c0 .3.1.9.1 1.6v19.2a11.3 11.3 0 0 1-3.7 8.6 12.4 12.4 0 0 1-8.4 3.3 13.5 13.5 0 0 1-6.7-1.8c-2.2-1.1-3.2-2.1-3.2-3.1a4.3 4.3 0 0 1 1.4-3.2l1.3-1.3a1.7 1.7 0 0 1 1.2-.4 1.9 1.9 0 0 1 1.3.6 8 8 0 0 0 4.8 1.7 3.6 3.6 0 0 0 2.9-1.4 4.7 4.7 0 0 0 1.1-3.3zm-8.2-9.5a3.7 3.7 0 0 0 1.2 2.7 3.6 3.6 0 0 0 2.8 1.2 3.5 3.5 0 0 0 2.8-1.2 3.9 3.9 0 0 0 1.2-2.7 4.5 4.5 0 0 0-1.1-2.8 4.1 4.1 0 0 0-5.8 0 4 4 0 0 0-1.1 2.8zm36.5-11.6a2.3 2.3 0 0 1 1.4.9 3.4 3.4 0 0 1 .6 2.2 7.1 7.1 0 0 1-.9 3.2 2.6 2.6 0 0 1-2.5 1.8 2.9 2.9 0 0 1-1.6-.4 5.4 5.4 0 0 0-2-.4 3.8 3.8 0 0 0-2.4.9 2.8 2.8 0 0 0-1.1 2.1V50a3.8 3.8 0 0 1-.5 1.2q-.6 1.2-3.6 1.2a4.7 4.7 0 0 1-3.2-.8 2.5 2.5 0 0 1-.8-2V30.4l.4-1.2c.5-.8 1.7-1.2 3.7-1.2s3 .3 3.4 1a2.4 2.4 0 0 1 .5 1.6l.7-.8 1.9-1.3a5.9 5.9 0 0 1 2.5-.8l1.9.2a5.3 5.3 0 0 1 1.6.4zm6.4 2.7a12.8 12.8 0 0 1 17.8 0 12.8 12.8 0 0 1 1.8 16 11.8 11.8 0 0 1-4.8 4.4 12.9 12.9 0 0 1-11.9-.1 13.4 13.4 0 0 1-4.8-4.4 11.3 11.3 0 0 1-2-6.7 12.2 12.2 0 0 1 3.9-9.2zm5.8 12.5a4.8 4.8 0 0 0 3 1.2 5.3 5.3 0 0 0 3.1-1.2 4.1 4.1 0 0 0 1.5-3.4 4.2 4.2 0 0 0-1.4-3.4 5.4 5.4 0 0 0-3.2-1.1 5.3 5.3 0 0 0-3.1 1.1 4.5 4.5 0 0 0-1.4 3.5 3.7 3.7 0 0 0 1.5 3.3zm29.7 8.8a9.9 9.9 0 0 1-7.8-3.5 13.2 13.2 0 0 1-3.1-8.7V32a6.7 6.7 0 0 1 .1-1.6 2.8 2.8 0 0 1 .4-1.2c.4-.9 1.6-1.3 3.6-1.3s3.4.6 3.8 1.8a7 7 0 0 1 .3 2.4v8.1a4 4 0 0 0 1.1 2.9 3.6 3.6 0 0 0 2.9 1.1 4.4 4.4 0 0 0 3-1.1 4 4 0 0 0 1.1-2.9V32a6.7 6.7 0 0 1 .1-1.6 3.8 3.8 0 0 1 .4-1.3q.6-1.2 3.6-1.2c1.9 0 3.1.4 3.6 1.3a8.4 8.4 0 0 1 .4 1.2V50a5.1 5.1 0 0 1-.5 1.2q-.6 1.2-3.6 1.2c-1.8 0-3-.4-3.4-1.1a4.1 4.1 0 0 1-.5-1.9l-.8.9-1.3 1a5.9 5.9 0 0 1-3.4 1zM332.9 28a10.2 10.2 0 0 1 7.8 3.5 13.1 13.1 0 0 1 3 8.7v9.7a5.6 5.6 0 0 1-.4 1.2c-.5.9-1.7 1.3-3.6 1.3s-3.5-.6-3.8-1.7a7.8 7.8 0 0 1-.3-2.4v-8.2a3.8 3.8 0 0 0-4-4 4.2 4.2 0 0 0-3 1.1 3.8 3.8 0 0 0-1.1 2.9v8.2c0 .8-.1 1.3-.1 1.6a3.1 3.1 0 0 1-.5 1.2c-.4.9-1.5 1.3-3.5 1.3s-3.2-.4-3.6-1.3a5.6 5.6 0 0 1-.4-1.2c0-.4-.1-.9-.1-1.6V31.9c0-.7.1-1.2.1-1.6l.4-1.2c.5-.7 1.7-1.1 3.6-1.1s3.1.3 3.5 1a4.1 4.1 0 0 1 .5 1.9l.8-.9 1.3-1a5.9 5.9 0 0 1 3.4-1zm31-10.2a1.8 1.8 0 0 1 1.2-1l2.3-.2 2.4.2a2 2 0 0 1 1.2 1 4.1 4.1 0 0 1 .4 1.2 7.1 7.1 0 0 1 .1 1.6v27.7a6.2 6.2 0 0 1-.1 1.6 2.8 2.8 0 0 1-.4 1.2c-.5.9-1.8 1.3-3.9 1.3s-3.4-.8-3.6-2.3a6.8 6.8 0 0 1-5.5 2.2 10.3 10.3 0 0 1-7.6-3.6 12.3 12.3 0 0 1 0-17c2.4-2.5 4.9-3.7 7.6-3.7a6.8 6.8 0 0 1 5.4 2.3V19a3.1 3.1 0 0 1 .5-1.2zM356.3 43a4.1 4.1 0 0 0 2.9 1.3 3.9 3.9 0 0 0 2.9-1.3 4.1 4.1 0 0 0 1.1-2.8 4 4 0 0 0-1.1-2.8 3.8 3.8 0 0 0-2.9-1.3 4.2 4.2 0 0 0-3 1.3 4.5 4.5 0 0 0-1.1 2.8 3.9 3.9 0 0 0 1.2 2.8z"/><path d="M139.7 69.4h1.6a2.8 2.8 0 0 1 1.2.4 2.2 2.2 0 0 1 1 1.3 14 14 0 0 1 .2 2.3 14.4 14.4 0 0 1-.2 2.4 2 2 0 0 1-1 1.2l-1.2.5h-15.9v4.7h10.8l1.2.4c.8.5 1.2 1.7 1.2 3.7s-.6 3.4-1.7 3.8a7 7 0 0 1-2.4.3h-9.1v8.7a7.6 7.6 0 0 1-.1 1.7 4.1 4.1 0 0 1-.4 1.2q-.6 1.2-3.6 1.2c-2.2 0-3.5-.6-3.8-1.7a7 7 0 0 1-.3-2.4V73.5c0-1.6.3-2.7.9-3.2a4.7 4.7 0 0 1 3.3-.9zm13.8 5.1a2.5 2.5 0 0 1-1.3.9 7.1 7.1 0 0 1-2.3.3 7.8 7.8 0 0 1-2.4-.3 2 2 0 0 1-1.2-1 2.8 2.8 0 0 1-.4-1.2 7.1 7.1 0 0 1-.1-1.6 7.1 7.1 0 0 1 .1-1.6 2.8 2.8 0 0 1 .4-1.2q.6-1.2 3.6-1.2c2 0 3.1.4 3.5 1.2a5.1 5.1 0 0 1 .5 1.2v3.2a9.3 9.3 0 0 1-.4 1.3zm-7.7 8.6a6.2 6.2 0 0 1 .1-1.6 3.8 3.8 0 0 1 .4-1.3q.6-1.2 3.6-1.2a5.4 5.4 0 0 1 3.2.8 2.5 2.5 0 0 1 .8 2V101a3.8 3.8 0 0 1-.5 1.2c-.4.8-1.6 1.2-3.5 1.2s-3.2-.4-3.6-1.2a4.1 4.1 0 0 1-.4-1.2 7.6 7.6 0 0 1-.1-1.7zm25.4-4.1a10.2 10.2 0 0 1 7.8 3.5 13.2 13.2 0 0 1 3.1 8.7v8.1c0 .8-.1 1.3-.1 1.6a5.6 5.6 0 0 1-.4 1.2c-.4.9-1.6 1.3-3.6 1.3s-3.5-.6-3.8-1.7a7.8 7.8 0 0 1-.3-2.4v-8.2a3.8 3.8 0 0 0-4-4 4.4 4.4 0 0 0-3 1.1 4.2 4.2 0 0 0-1.1 2.9v8.2c0 .8-.1 1.3-.1 1.6a2.8 2.8 0 0 1-.4 1.2c-.4.9-1.6 1.3-3.6 1.3s-3.2-.4-3.6-1.3a5.6 5.6 0 0 1-.4-1.2V81.3a5.1 5.1 0 0 1 .5-1.2c.4-.7 1.6-1.1 3.5-1.1s3.1.3 3.5 1a4.1 4.1 0 0 1 .5 1.9l.8-.9 1.3-1a5.9 5.9 0 0 1 3.4-1zm31-10.2a1.8 1.8 0 0 1 1.2-1l2.3-.2 2.4.2a2 2 0 0 1 1.2 1 4.1 4.1 0 0 1 .4 1.2 7.1 7.1 0 0 1 .1 1.6v27.7a6.2 6.2 0 0 1-.1 1.6 2.8 2.8 0 0 1-.4 1.2c-.5.9-1.8 1.3-3.9 1.3s-3.4-.8-3.6-2.3a6.8 6.8 0 0 1-5.5 2.2 10.5 10.5 0 0 1-7.6-3.6 12.2 12.2 0 0 1 .1-17c2.3-2.5 4.8-3.7 7.5-3.7a6.8 6.8 0 0 1 5.4 2.3v-9.7a7.1 7.1 0 0 1 .1-1.6 1.9 1.9 0 0 1 .4-1.2zM194.6 94a4.2 4.2 0 0 0 3 1.3 3.9 3.9 0 0 0 2.8-1.3 3.7 3.7 0 0 0 1.1-2.8 4.4 4.4 0 0 0-1-2.8 4.1 4.1 0 0 0-6 0 4.5 4.5 0 0 0-1.1 2.8 3.9 3.9 0 0 0 1.2 2.8zm42.5-5.7a5.7 5.7 0 0 1-1.4 4.2 4.7 4.7 0 0 1-3.2 1.4h-11a2.4 2.4 0 0 0 1.6 2.1 5.8 5.8 0 0 0 3 .9 16.3 16.3 0 0 0 4.3-.5l.5-.2a3.5 3.5 0 0 1 1.8-.5c1 0 1.9.7 2.6 2.1a4.8 4.8 0 0 1 .6 2.1c0 2.8-3.3 4.1-9.9 4.1a14.8 14.8 0 0 1-6.1-1.2 9.6 9.6 0 0 1-4.2-3.1 13.6 13.6 0 0 1-2.9-8.4 12.1 12.1 0 0 1 3.8-9.3 13.1 13.1 0 0 1 9.4-3.5c4.3 0 7.5 1.5 9.5 4.5a9.2 9.2 0 0 1 1.6 5.3zm-9.8 1.3c1.2 0 1.8-.4 1.8-1.4a2.3 2.3 0 0 0-.9-1.8 3.7 3.7 0 0 0-2.3-.6 4.8 4.8 0 0 0-3 1.2 3.4 3.4 0 0 0-1.5 2.6zm29.4-10.3a2.9 2.9 0 0 1 1.5.9 3.4 3.4 0 0 1 .5 2.2 6.9 6.9 0 0 1-.8 3.2 2.9 2.9 0 0 1-2.6 1.8 3.2 3.2 0 0 1-1.6-.4 5.4 5.4 0 0 0-2-.4 3.5 3.5 0 0 0-2.3.9 2.5 2.5 0 0 0-1.1 2.1v9.8c0 .7-.1 1.2-.1 1.6a8.4 8.4 0 0 1-.4 1.2c-.5.8-1.7 1.2-3.7 1.2a4.7 4.7 0 0 1-3.2-.8 2.8 2.8 0 0 1-.8-2V83a7.1 7.1 0 0 1 .1-1.6 2.4 2.4 0 0 1 .4-1.2q.6-1.2 3.6-1.2c1.8 0 3 .3 3.5 1a3 3 0 0 1 .5 1.6 3.3 3.3 0 0 1 .6-.8l1.9-1.3a5.9 5.9 0 0 1 2.5-.8l1.9.2a5.3 5.3 0 0 1 1.6.4z"/></svg>